<svg width="19" height="19" viewBox="0 0 19 19" fill="none" xmlns="http://www.w3.org/2000/svg">
<path d="M13.1058 12.0217H12.2829L11.9912 11.7404C13.012 10.5529 13.6266 9.01127 13.6266 7.33419C13.6266 3.5946 10.5954 0.563354 6.85579 0.563354C3.11621 0.563354 0.0849609 3.5946 0.0849609 7.33419C0.0849609 11.0738 3.11621 14.105 6.85579 14.105C8.53288 14.105 10.0745 13.4904 11.262 12.4696L11.5433 12.7613V13.5842L16.7516 18.7821L18.3037 17.23L13.1058 12.0217V12.0217ZM6.85579 12.0217C4.26204 12.0217 2.16829 9.92794 2.16829 7.33419C2.16829 4.74044 4.26204 2.64669 6.85579 2.64669C9.44954 2.64669 11.5433 4.74044 11.5433 7.33419C11.5433 9.92794 9.44954 12.0217 6.85579 12.0217Z" fill="#9A989D"/>
</svg>
