<svg width="16" height="14" viewBox="0 0 16 14" fill="none" xmlns="http://www.w3.org/2000/svg">
<path d="M8.11263 4.3239L5.27929 7.15723L7.4043 7.15723L7.4043 13.5322L8.82096 13.5322L8.82096 7.15723L10.946 7.15723L8.11263 4.3239ZM1.73763 13.5322L5.98763 13.5322L5.98763 12.1226L1.73763 12.1226L1.73763 2.18473L14.4876 2.18473L14.4876 12.1226L10.2376 12.1226L10.2376 13.5322L14.4876 13.5322C15.2668 13.5322 15.9043 12.8947 15.9043 12.1156L15.9043 2.19889C15.9043 1.41973 15.2668 0.782229 14.4876 0.782229L1.73763 0.78223C0.958461 0.78223 0.32096 1.41973 0.32096 2.1989L0.320961 12.1156C0.320961 12.8947 0.958462 13.5322 1.73763 13.5322ZM8.11263 4.3239L5.27929 7.15723L7.4043 7.15723L7.4043 13.5322L8.82096 13.5322L8.82096 7.15723L10.946 7.15723L8.11263 4.3239ZM1.73763 13.5322L5.98763 13.5322L5.98763 12.1226L1.73763 12.1226L1.73763 2.18473L14.4876 2.18473L14.4876 12.1226L10.2376 12.1226L10.2376 13.5322L14.4876 13.5322C15.2668 13.5322 15.9043 12.8947 15.9043 12.1156L15.9043 2.19889C15.9043 1.41973 15.2668 0.782229 14.4876 0.782229L1.73763 0.78223C0.958461 0.78223 0.32096 1.41973 0.32096 2.1989L0.320961 12.1156C0.320961 12.8947 0.958462 13.5322 1.73763 13.5322Z" fill="white"/>
</svg>
